<svg version="1.1" preserveAspectRatio="none" xmlns="http://www.w3.org/2000/svg" width="500" height="500" viewBox="0 0 500 500"><rect width="100%" height="100%" fill="#05001e" fill-opacity="1"/><svg viewBox="116.7866 605.4 633.7849 230" width="333" height="120.84541616564232" x="83.5px" y="189.5773px" xmlns="http://www.w3.org/2000/svg" xmlns:xlink="http://www.w3.org/1999/xlink" preserveAspectRatio="none"><defs></defs><style>.background {fill:#FFFFFF;fill-opacity:1;}.companyName {fill:#0C0C0C;fill-opacity:1;}.icon3 {fill:#6F5CF3;fill-opacity:1;}.icon3-str {stroke:#6F5CF3;stroke-opacity:1;}.shape {fill:#F55649;fill-opacity:1;}.text {fill:#0C0C0C;fill-opacity:1;}.text-str {stroke:#0C0C0C;stroke-opacity:1;}</style><g opacity="1" transform="rotate(0 299.7864 605.4)">
<svg width="450.7851" height="180" x="299.7864" y="605.4" version="1.1" preserveAspectRatio="none" viewBox="0 0 450.7851 180">
  <defs><rect x="0" y="0" width="450.7851" height="180" rx="0px" ry="0px" id="id-B7crM0kCi1704286766768"></rect></defs><use class="companyName text-str" style="stroke-width:0;" xlink:href="#id-B7crM0kCi1704286766768"></use>
</svg>
</g><g opacity="1" transform="rotate(0 280.2301 811.4)">
<svg width="306.8979" height="24" x="280.2301" y="811.4" version="1.1" preserveAspectRatio="none" viewBox="4.2 -30.28 489.48 38.28">
  <g transform="matrix(1 0 0 1 0 0)" class="text"><path id="id-6izo4zJp24" d="M23.04-14.52Q25.48-13.84 26.88-12.06Q28.28-10.28 28.28-7.56L28.28-7.56Q28.28-3.92 25.54-1.96Q22.80 0 17.56 0L17.56 0L4.20 0L4.20-28L16.76-28Q21.56-28 24.18-26.08Q26.80-24.16 26.80-20.76L26.80-20.76Q26.80-18.56 25.78-16.96Q24.76-15.36 23.04-14.52L23.04-14.52ZM16.40-24.76L8.20-24.76L8.20-15.80L16.40-15.80Q19.48-15.80 21.14-16.94Q22.80-18.08 22.80-20.28L22.80-20.28Q22.80-22.48 21.14-23.62Q19.48-24.76 16.40-24.76L16.40-24.76ZM17.40-3.24Q20.80-3.24 22.52-4.36Q24.24-5.48 24.24-7.88L24.24-7.88Q24.24-12.56 17.40-12.56L17.40-12.56L8.20-12.56L8.20-3.24L17.40-3.24Z M39.60-17.64Q40.60-19.48 42.56-20.44Q44.52-21.40 47.32-21.40L47.32-21.40L47.32-17.68Q47-17.72 46.44-17.72L46.44-17.72Q43.32-17.72 41.54-15.86Q39.76-14 39.76-10.56L39.76-10.56L39.76 0L35.92 0L35.92-21.20L39.60-21.20L39.60-17.64Z M54.04 0L54.04-21.20L57.88-21.20L57.88 0L54.04 0ZM55.96-25.28Q54.84-25.28 54.10-26Q53.36-26.72 53.36-27.76L53.36-27.76Q53.36-28.80 54.10-29.54Q54.84-30.28 55.96-30.28L55.96-30.28Q57.08-30.28 57.82-29.58Q58.56-28.88 58.56-27.84L58.56-27.84Q58.56-26.76 57.82-26.02Q57.08-25.28 55.96-25.28L55.96-25.28Z M78.52-21.40Q82.56-21.40 84.94-19.06Q87.32-16.72 87.32-12.20L87.32-12.20L87.32 0L83.48 0L83.48-11.76Q83.48-14.84 82-16.40Q80.52-17.96 77.76-17.96L77.76-17.96Q74.64-17.96 72.84-16.14Q71.04-14.32 71.04-10.92L71.04-10.92L71.04 0L67.20 0L67.20-21.20L70.88-21.20L70.88-18Q72.04-19.64 74.02-20.52Q76-21.40 78.52-21.40L78.52-21.40Z M113.20-21.20L116.84-21.20L116.84-2.88Q116.84 2.68 114.08 5.34Q111.32 8 105.84 8L105.84 8Q102.84 8 100.12 7.18Q97.40 6.36 95.72 4.84L95.72 4.84L97.56 1.88Q99.04 3.16 101.22 3.90Q103.40 4.64 105.72 4.64L105.72 4.64Q109.44 4.64 111.22 2.88Q113.00 1.12 113.00-2.48L113.00-2.48L113.00-4.16Q111.64-2.52 109.66-1.70Q107.68-0.88 105.36-0.88L105.36-0.88Q102.32-0.88 99.86-2.18Q97.40-3.48 96.00-5.82Q94.60-8.16 94.60-11.16L94.60-11.16Q94.60-14.16 96.00-16.50Q97.40-18.84 99.86-20.12Q102.32-21.40 105.36-21.40L105.36-21.40Q107.76-21.40 109.82-20.52Q111.88-19.64 113.20-17.92L113.20-17.92L113.20-21.20ZM105.80-4.24Q107.88-4.24 109.54-5.12Q111.20-6 112.14-7.58Q113.08-9.16 113.08-11.16L113.08-11.16Q113.08-14.24 111.04-16.14Q109.00-18.04 105.80-18.04L105.80-18.04Q102.56-18.04 100.52-16.14Q98.48-14.24 98.48-11.16L98.48-11.16Q98.48-9.16 99.42-7.58Q100.36-6 102.02-5.12Q103.68-4.24 105.80-4.24L105.80-4.24Z M153.92-21.20L157.68-21.20L147.40 2.12Q146.04 5.36 144.22 6.68Q142.40 8 139.84 8L139.84 8Q138.28 8 136.82 7.50Q135.36 7 134.40 6.04L134.40 6.04L136.04 3.16Q137.68 4.72 139.84 4.72L139.84 4.72Q141.24 4.72 142.18 3.98Q143.12 3.24 143.88 1.44L143.88 1.44L144.56-0.04L135.20-21.20L139.20-21.20L146.60-4.24L153.92-21.20Z M171.76 0.24Q168.60 0.24 166.08-1.16Q163.56-2.56 162.14-5.02Q160.72-7.48 160.72-10.60L160.72-10.60Q160.72-13.72 162.14-16.18Q163.56-18.64 166.08-20.02Q168.60-21.40 171.76-21.40L171.76-21.40Q174.92-21.40 177.42-20.02Q179.92-18.64 181.34-16.18Q182.76-13.72 182.76-10.60L182.76-10.60Q182.76-7.48 181.34-5.02Q179.92-2.56 177.42-1.16Q174.92 0.24 171.76 0.24L171.76 0.24ZM171.76-3.12Q173.80-3.12 175.42-4.06Q177.04-5 177.96-6.70Q178.88-8.40 178.88-10.60L178.88-10.60Q178.88-12.80 177.96-14.50Q177.04-16.20 175.42-17.12Q173.80-18.04 171.76-18.04L171.76-18.04Q169.72-18.04 168.10-17.12Q166.48-16.20 165.54-14.50Q164.60-12.80 164.60-10.60L164.60-10.60Q164.60-8.40 165.54-6.70Q166.48-5 168.10-4.06Q169.72-3.12 171.76-3.12L171.76-3.12Z M206-21.20L209.84-21.20L209.84 0L206.20 0L206.20-3.20Q205.04-1.56 203.14-0.66Q201.24 0.24 199 0.24L199 0.24Q194.76 0.24 192.32-2.10Q189.88-4.44 189.88-9L189.88-9L189.88-21.20L193.72-21.20L193.72-9.44Q193.72-6.36 195.20-4.78Q196.68-3.20 199.44-3.20L199.44-3.20Q202.48-3.20 204.24-5.04Q206-6.88 206-10.24L206-10.24L206-21.20Z M222.84-17.64Q223.84-19.48 225.80-20.44Q227.76-21.40 230.56-21.40L230.56-21.40L230.56-17.68Q230.24-17.72 229.68-17.72L229.68-17.72Q226.56-17.72 224.78-15.86Q223-14 223-10.56L223-10.56L223 0L219.16 0L219.16-21.20L222.84-21.20L222.84-17.64Z M266.48-29.68L270.32-29.68L270.32 0L266.64 0L266.64-3.36Q265.36-1.60 263.40-0.68Q261.44 0.24 259.08 0.24L259.08 0.24Q256 0.24 253.56-1.12Q251.12-2.48 249.74-4.94Q248.36-7.40 248.36-10.60L248.36-10.60Q248.36-13.80 249.74-16.24Q251.12-18.68 253.56-20.04Q256-21.40 259.08-21.40L259.08-21.40Q261.36-21.40 263.28-20.54Q265.20-19.68 266.48-18L266.48-18L266.48-29.68ZM259.40-3.12Q261.40-3.12 263.04-4.06Q264.68-5 265.60-6.70Q266.52-8.40 266.52-10.60L266.52-10.60Q266.52-12.80 265.60-14.50Q264.68-16.20 263.04-17.12Q261.40-18.04 259.40-18.04L259.40-18.04Q257.36-18.04 255.74-17.12Q254.12-16.20 253.18-14.50Q252.24-12.80 252.24-10.60L252.24-10.60Q252.24-8.40 253.18-6.70Q254.12-5 255.74-4.06Q257.36-3.12 259.40-3.12L259.40-3.12Z M287.32-21.40Q291.72-21.40 294.06-19.24Q296.40-17.08 296.40-12.80L296.40-12.80L296.40 0L292.76 0L292.76-2.80Q291.80-1.32 290.02-0.54Q288.24 0.24 285.80 0.24L285.80 0.24Q282.24 0.24 280.10-1.48Q277.96-3.20 277.96-6L277.96-6Q277.96-8.80 280.00-10.50Q282.04-12.20 286.48-12.20L286.48-12.20L292.56-12.20L292.56-12.96Q292.56-15.44 291.12-16.76Q289.68-18.08 286.88-18.08L286.88-18.08Q285.00-18.08 283.20-17.46Q281.40-16.84 280.16-15.80L280.16-15.80L278.56-18.68Q280.20-20 282.48-20.70Q284.76-21.40 287.32-21.40L287.32-21.40ZM286.44-2.72Q288.64-2.72 290.24-3.70Q291.84-4.68 292.56-6.48L292.56-6.48L292.56-9.44L286.64-9.44Q281.76-9.44 281.76-6.16L281.76-6.16Q281.76-4.56 283.00-3.64Q284.24-2.72 286.44-2.72L286.44-2.72Z M316.24-4L317.44-1.24Q316.60-0.52 315.36-0.14Q314.12 0.24 312.80 0.24L312.80 0.24Q309.60 0.24 307.84-1.48Q306.08-3.20 306.08-6.40L306.08-6.40L306.08-18.04L302.48-18.04L302.48-21.20L306.08-21.20L306.08-25.84L309.92-25.84L309.92-21.20L316.00-21.20L316.00-18.04L309.92-18.04L309.92-6.56Q309.92-4.84 310.78-3.92Q311.64-3 313.24-3L313.24-3Q315.00-3 316.24-4L316.24-4Z M331.80-21.40Q336.20-21.40 338.54-19.24Q340.88-17.08 340.88-12.80L340.88-12.80L340.88 0L337.24 0L337.24-2.80Q336.28-1.32 334.50-0.54Q332.72 0.24 330.28 0.24L330.28 0.24Q326.72 0.24 324.58-1.48Q322.44-3.20 322.44-6L322.44-6Q322.44-8.80 324.48-10.50Q326.52-12.20 330.96-12.20L330.96-12.20L337.04-12.20L337.04-12.96Q337.04-15.44 335.60-16.76Q334.16-18.08 331.36-18.08L331.36-18.08Q329.48-18.08 327.68-17.46Q325.88-16.84 324.64-15.80L324.64-15.80L323.04-18.68Q324.68-20 326.96-20.70Q329.24-21.40 331.80-21.40L331.80-21.40ZM330.92-2.72Q333.12-2.72 334.72-3.70Q336.32-4.68 337.04-6.48L337.04-6.48L337.04-9.44L331.12-9.44Q326.24-9.44 326.24-6.16L326.24-6.16Q326.24-4.56 327.48-3.64Q328.72-2.72 330.92-2.72L330.92-2.72Z M373.48-4L374.68-1.24Q373.84-0.52 372.60-0.14Q371.36 0.24 370.04 0.24L370.04 0.24Q366.84 0.24 365.08-1.48Q363.32-3.20 363.32-6.40L363.32-6.40L363.32-18.04L359.72-18.04L359.72-21.20L363.32-21.20L363.32-25.84L367.16-25.84L367.16-21.20L373.24-21.20L373.24-18.04L367.16-18.04L367.16-6.56Q367.16-4.84 368.02-3.92Q368.88-3 370.48-3L370.48-3Q372.24-3 373.48-4L373.48-4Z M389.68 0.24Q386.52 0.24 384.00-1.16Q381.48-2.56 380.06-5.02Q378.64-7.48 378.64-10.60L378.64-10.60Q378.64-13.72 380.06-16.18Q381.48-18.64 384.00-20.02Q386.52-21.40 389.68-21.40L389.68-21.40Q392.84-21.40 395.34-20.02Q397.84-18.64 399.26-16.18Q400.68-13.72 400.68-10.60L400.68-10.60Q400.68-7.48 399.26-5.02Q397.84-2.56 395.34-1.16Q392.84 0.24 389.68 0.24L389.68 0.24ZM389.68-3.12Q391.72-3.12 393.34-4.06Q394.96-5 395.88-6.70Q396.80-8.40 396.80-10.60L396.80-10.60Q396.80-12.80 395.88-14.50Q394.96-16.20 393.34-17.12Q391.72-18.04 389.68-18.04L389.68-18.04Q387.64-18.04 386.02-17.12Q384.40-16.20 383.46-14.50Q382.52-12.80 382.52-10.60L382.52-10.60Q382.52-8.40 383.46-6.70Q384.40-5 386.02-4.06Q387.64-3.12 389.68-3.12L389.68-3.12Z M420.76 0L420.76-29.68L424.60-29.68L424.60 0L420.76 0Z M433.92 0L433.92-21.20L437.76-21.20L437.76 0L433.92 0ZM435.84-25.28Q434.72-25.28 433.98-26Q433.24-26.72 433.24-27.76L433.24-27.76Q433.24-28.80 433.98-29.54Q434.72-30.28 435.84-30.28L435.84-30.28Q436.96-30.28 437.70-29.58Q438.44-28.88 438.44-27.84L438.44-27.84Q438.44-26.76 437.70-26.02Q436.96-25.28 435.84-25.28L435.84-25.28Z M454.84-26.76Q451.40-26.76 451.40-23.04L451.40-23.04L451.40-21.20L457.56-21.20L457.56-18.04L451.48-18.04L451.48 0L447.64 0L447.64-18.04L444.04-18.04L444.04-21.20L447.64-21.20L447.64-23.08Q447.64-26.24 449.48-28.08Q451.32-29.92 454.64-29.92L454.64-29.92Q455.92-29.92 457.04-29.60Q458.16-29.28 458.96-28.68L458.96-28.68L457.80-25.76Q456.48-26.76 454.84-26.76L454.84-26.76Z M482.04-10.48Q482.04-10.04 481.96-9.32L481.96-9.32L464.76-9.32Q465.12-6.52 467.22-4.82Q469.32-3.12 472.44-3.12L472.44-3.12Q476.24-3.12 478.56-5.68L478.56-5.68L480.68-3.20Q479.24-1.52 477.10-0.64Q474.96 0.24 472.32 0.24L472.32 0.24Q468.96 0.24 466.36-1.14Q463.76-2.52 462.34-5Q460.92-7.48 460.92-10.60L460.92-10.60Q460.92-13.68 462.30-16.16Q463.68-18.64 466.10-20.02Q468.52-21.40 471.56-21.40L471.56-21.40Q474.60-21.40 476.98-20.02Q479.36-18.64 480.70-16.16Q482.04-13.68 482.04-10.48L482.04-10.48ZM471.56-18.16Q468.80-18.16 466.94-16.48Q465.08-14.80 464.76-12.08L464.76-12.08L478.36-12.08Q478.04-14.76 476.18-16.46Q474.32-18.16 471.56-18.16L471.56-18.16Z M489.56-8.84L488.84-28L493.36-28L492.60-8.84L489.56-8.84ZM491.12 0.24Q490.00 0.24 489.24-0.50Q488.48-1.24 488.48-2.32L488.48-2.32Q488.48-3.40 489.24-4.14Q490.00-4.88 491.12-4.88L491.12-4.88Q492.24-4.88 492.96-4.14Q493.68-3.40 493.68-2.32L493.68-2.32Q493.68-1.24 492.94-0.50Q492.20 0.24 491.12 0.24L491.12 0.24Z"/></g>
</svg>
</g><g opacity="1" transform="rotate(0 329.7864 635.4)">
<svg width="390.7851" height="120" x="329.7864" y="635.4" version="1.1" preserveAspectRatio="none" viewBox="2.2656 -32.4023 106.85549999999999 32.8125">
  <g transform="matrix(1 0 0 1 0 0)" class="background"><path id="id-D6z1nYkh4" d="M13.54 0L13.54-25.10L2.27-25.10L2.27-30.53L31.00-30.53L31.00-25.10L19.73-25.10L19.73 0L13.54 0Z M39.92-26.19L39.92-26.19Q39.06-26.19 38.37-26.44Q37.68-26.68 37.19-27.10Q36.70-27.52 36.44-28.08Q36.17-28.63 36.17-29.26L36.17-29.26Q36.17-29.90 36.44-30.46Q36.70-31.02 37.19-31.43Q37.68-31.84 38.37-32.08Q39.06-32.32 39.92-32.32L39.92-32.32Q40.80-32.32 41.49-32.08Q42.19-31.84 42.68-31.43Q43.16-31.02 43.43-30.46Q43.69-29.90 43.69-29.26L43.69-29.26Q43.69-28.63 43.43-28.08Q43.16-27.52 42.68-27.10Q42.19-26.68 41.49-26.44Q40.80-26.19 39.92-26.19ZM37.03 0L37.03-23.05L42.81-23.05L42.81 0L37.03 0Z M50.06 0L50.06-32.40L55.84-32.40L55.84-20.88Q56.60-21.41 57.64-21.88Q58.67-22.34 59.86-22.70Q61.05-23.05 62.32-23.25Q63.59-23.46 64.86-23.46L64.86-23.46Q67.79-23.46 70.24-22.60Q72.70-21.74 74.45-20.18Q76.21-18.61 77.20-16.44Q78.18-14.26 78.18-11.62L78.18-11.62Q78.18-8.87 77.15-6.65Q76.11-4.43 74.29-2.86Q72.46-1.29 69.95-0.44Q67.44 0.41 64.51 0.41L64.51 0.41Q63.26 0.41 62.04 0.25Q60.82 0.10 59.70-0.18Q58.57-0.45 57.59-0.83Q56.60-1.21 55.84-1.66L55.84-1.66L55.84 0L50.06 0ZM55.84-15.23L55.84-7.25Q56.72-6.54 57.70-6.05Q58.67-5.57 59.69-5.25Q60.70-4.94 61.74-4.79Q62.77-4.65 63.75-4.65L63.75-4.65Q65.74-4.65 67.29-5.19Q68.85-5.72 69.91-6.66Q70.98-7.60 71.54-8.87Q72.11-10.14 72.11-11.62L72.11-11.62Q72.11-13.01 71.55-14.24Q71.00-15.47 69.95-16.40Q68.91-17.32 67.43-17.86Q65.96-18.40 64.12-18.40L64.12-18.40Q62.95-18.40 61.78-18.17Q60.61-17.95 59.52-17.54Q58.44-17.13 57.49-16.54Q56.54-15.96 55.84-15.23L55.84-15.23Z M82.44-7.27L82.44-7.27Q82.44-8.93 83.16-10.29Q83.89-11.66 85.33-12.65Q86.78-13.63 88.94-14.17Q91.09-14.71 93.96-14.71L93.96-14.71Q96.09-14.71 98.45-14.39Q100.80-14.08 103.30-13.44L103.30-13.44Q103.20-14.53 102.64-15.46Q102.07-16.39 101.06-17.06Q100.06-17.73 98.64-18.11Q97.23-18.48 95.43-18.48L95.43-18.48Q94.45-18.48 93.28-18.36Q92.11-18.24 90.86-18.01Q89.61-17.77 88.39-17.42Q87.17-17.07 86.11-16.58L86.11-16.58L84.36-21.33Q85.66-21.80 87.16-22.19Q88.65-22.58 90.21-22.86Q91.78-23.14 93.34-23.30Q94.90-23.46 96.37-23.46L96.37-23.46Q102.83-23.46 105.98-20.16Q109.12-16.86 109.12-10.04L109.12-10.04L109.12 0L103.34 0L103.34-2.17Q102.44-1.64 101.38-1.17Q100.31-0.70 99.06-0.35Q97.81 0 96.38 0.21Q94.94 0.41 93.34 0.41L93.34 0.41Q90.64 0.41 88.60-0.18Q86.56-0.76 85.20-1.80Q83.83-2.83 83.13-4.23Q82.44-5.63 82.44-7.27ZM88.54-7.46L88.54-7.46Q88.54-6.89 88.83-6.38Q89.12-5.86 89.77-5.46Q90.41-5.06 91.42-4.81Q92.42-4.57 93.85-4.57L93.85-4.57Q95.37-4.57 96.80-4.84Q98.22-5.12 99.45-5.57Q100.68-6.02 101.68-6.60Q102.68-7.19 103.34-7.81L103.34-7.81L103.34-8.83Q102.01-9.20 100.71-9.45Q99.41-9.71 98.23-9.85Q97.05-10 96.01-10.06Q94.96-10.12 94.18-10.12L94.18-10.12Q92.56-10.12 91.48-9.90Q90.41-9.69 89.75-9.33Q89.08-8.96 88.81-8.48Q88.54-7.99 88.54-7.46Z"/></g>
</svg>
</g><g opacity="1" transform="rotate(0 116.7866 605.4)">
<svg width="179.9998" height="180" x="116.7866" y="605.4" version="1.1" preserveAspectRatio="none" viewBox="0 0 179.9998 180">
  <defs><rect x="0" y="0" width="179.9998" height="180" rx="0px" ry="0px" id="id-tBXipXk0b1704286766768"></rect></defs><use class="companyName text-str" style="stroke-width:0;" xlink:href="#id-tBXipXk0b1704286766768"></use>
</svg>
</g><g opacity="1" transform="rotate(0 146.7865 635.4)">
<svg width="120" height="120" x="146.7865" y="635.4" version="1.1" preserveAspectRatio="none" viewBox="10 10 80 80">
  <g transform="matrix(1 0 0 1 0 0)" class="icon3"><path d="M69.805,36.667C68.145,21.667,55.442,10,40,10c-16.569,0-30,13.431-30,30c0,15.442,11.667,28.145,26.667,29.805V90H90  V36.667H69.805z M16.667,40c0-12.868,10.469-23.333,23.333-23.333c11.731,0,21.442,8.711,23.066,20H36.667v26.399  C25.378,61.442,16.667,51.731,16.667,40z M63.066,43.333c-1.468,10.195-9.538,18.266-19.733,19.733V43.333H63.066z M83.333,83.333  h-40V69.805c13.903-1.54,24.932-12.568,26.472-26.472h13.528V83.333z"></path></g>
</svg>
</g></svg></svg>